<svg width="26" height="28" viewBox="0 0 26 28" fill="none" xmlns="http://www.w3.org/2000/svg">
<g filter="url(#filter0_n_1_2463)">
<g filter="url(#filter1_n_1_2463)">
<path d="M4.69057 19.1784C-1.72626 13.902 0.700508 8.79834 0.137401 1.77218C0.111485 1.44882 0.388151 1.17978 0.706463 1.24232C4.53174 1.99386 10.9904 5.00984 12.3761 12.3984C13.0019 15.7351 12.6841 20.3091 12.6782 25.9784C12.678 26.1412 12.469 26.2087 12.3721 26.0781C11.2058 24.507 10.7978 24.2002 4.69057 19.1784Z" fill="url(#paint0_linear_1_2463)"/>
<path d="M4.30118 18.623C-1.19986 14.0759 0.637824 7.70183 0.415406 2.01322C0.403029 1.69665 0.67664 1.44116 0.986945 1.50505C4.57286 2.24339 10.8818 5.36102 12.164 12.1974C12.7414 15.2756 12.6999 20.5914 12.7085 25.8864C12.7088 26.0529 12.4894 26.1208 12.3916 25.9861C11.1399 24.2625 9.54911 22.9608 4.30118 18.623Z" fill="url(#paint1_linear_1_2463)"/>
<g opacity="0.6">
<path d="M12.7099 25.994L12.6945 19.9219C12.6925 19.1235 12.5214 18.3252 12.1341 17.627C7.5464 9.3589 0.416494 11.1415 0.416494 11.1415C0.416494 11.1415 0.519386 15.6787 4.21902 18.6048C6.33441 20.2779 6.9622 20.9875 9.07714 22.6612C10.7621 23.9946 11.857 25.3757 12.3705 26.0982C12.4696 26.2377 12.7103 26.1652 12.7099 25.994Z" fill="url(#paint2_linear_1_2463)"/>
<path d="M12.7099 25.994L12.6945 19.9219C12.6925 19.1235 12.5214 18.3252 12.1341 17.627C7.5464 9.3589 0.416494 11.1415 0.416494 11.1415C0.416494 11.1415 0.519386 15.6787 4.21902 18.6048C6.33441 20.2779 6.9622 20.9875 9.07714 22.6612C10.7621 23.9946 11.857 25.3757 12.3705 26.0982C12.4696 26.2377 12.7103 26.1652 12.7099 25.994Z" fill="url(#paint3_radial_1_2463)"/>
</g>
<path d="M12.4876 18.4683C10.4906 14.1258 6.13682 10.361 1.17164 11.0577C1.08856 11.0683 1.00094 11.0457 0.919587 11.0585C1.00096 11.0459 1.08873 11.0687 1.17183 11.0583C6.04736 10.4949 10.4262 14.244 12.2135 18.5984C12.321 18.8374 12.6024 19.4374 12.6024 19.4374L12.5246 18.9324C12.5246 18.9324 12.6064 18.7061 12.4876 18.4683Z" fill="url(#paint4_linear_1_2463)"/>
<path d="M12.5704 18.4107C10.5733 14.0682 6.22061 10.3606 1.25542 11.0572C1.17235 11.0678 1.08472 11.0453 1.00337 11.058C1.08474 11.0454 1.17252 11.0683 1.25562 11.0579C6.23673 10.3727 10.509 14.1863 12.2962 18.5408C12.4037 18.7798 12.6851 19.3798 12.6851 19.3798L12.6074 18.8747C12.6074 18.8747 12.6891 18.6485 12.5704 18.4107Z" fill="#3F3F3F"/>
</g>
<path d="M0.740234 1.24354C4.56547 1.99507 11.0243 5.01141 12.4102 12.3998C13.0348 15.7302 12.811 20.4836 12.8096 26.1498C12.8095 26.3156 12.5945 26.3804 12.501 26.2435C12.4392 26.1532 12.3768 26.0685 12.3184 25.9847C12.0559 25.6238 11.6724 25.1317 11.165 24.5775C10.2195 23.619 8.60673 22.302 4.75684 19.2113C-1.75583 13.9828 0.730494 8.80439 0.170898 1.77381C0.145197 1.4506 0.422112 1.18132 0.740234 1.24354Z" fill="url(#paint5_radial_1_2463)"/>
<g filter="url(#filter2_n_1_2463)">
<path d="M21.1068 19.0747C27.3771 14.2075 25.473 9.12008 25.7165 1.62359C25.7246 1.3755 25.5533 1.15478 25.3051 1.1579C22.5161 1.19296 14.513 4.9833 13.6249 12.4566C13.205 15.9898 13.0569 20.3654 13.1925 26.0414C13.1961 26.1948 13.3857 26.2626 13.4841 26.1449C14.888 24.4656 15.0942 23.7418 21.1068 19.0747Z" fill="url(#paint6_radial_1_2463)"/>
<path d="M21.1068 19.0747C27.3771 14.2075 25.473 9.12008 25.7165 1.62359C25.7246 1.3755 25.5533 1.15478 25.3051 1.1579C22.5161 1.19296 14.513 4.9833 13.6249 12.4566C13.205 15.9898 13.0569 20.3654 13.1925 26.0414C13.1961 26.1948 13.3857 26.2626 13.4841 26.1449C14.888 24.4656 15.0942 23.7418 21.1068 19.0747Z" fill="url(#paint7_radial_1_2463)"/>
<path d="M21.651 18.4352C27.152 13.8882 25.3143 7.51411 25.5367 1.8255C25.5491 1.50893 25.2755 1.25344 24.9652 1.31733C21.3793 2.05567 15.0703 5.1733 13.7881 12.0097C13.2108 15.0879 13.2522 20.4036 13.2437 25.6987C13.2434 25.8652 13.4627 25.9331 13.5605 25.7984C14.8123 24.0747 16.403 22.7731 21.651 18.4352Z" fill="url(#paint8_linear_1_2463)"/>
<path d="M13.2421 25.864L13.2576 19.7342C13.2597 18.9358 13.4307 18.1374 13.8181 17.4393C18.4057 9.17118 25.5357 10.9538 25.5357 10.9538C25.5357 10.9538 25.3954 15.5947 21.6958 18.5209C19.5804 20.194 19.1172 20.554 16.9871 22.3545C15.2923 23.7872 14.1045 25.2522 13.5661 25.9695C13.4661 26.1027 13.2417 26.0306 13.2421 25.864Z" fill="url(#paint9_linear_1_2463)"/>
<path d="M13.2421 25.864L13.2576 19.7342C13.2597 18.9358 13.4307 18.1374 13.8181 17.4393C18.4057 9.17118 25.5357 10.9538 25.5357 10.9538C25.5357 10.9538 25.3954 15.5947 21.6958 18.5209C19.5804 20.194 19.1172 20.554 16.9871 22.3545C15.2923 23.7872 14.1045 25.2522 13.5661 25.9695C13.4661 26.1027 13.2417 26.0306 13.2421 25.864Z" fill="url(#paint10_radial_1_2463)"/>
<path d="M13.4645 18.2806C15.4616 13.9381 19.8153 10.1733 24.7805 10.87C24.8636 10.8805 24.9512 10.858 25.0326 10.8708C24.9512 10.8581 24.8634 10.881 24.7803 10.8706C19.9048 10.3072 15.5259 14.0563 13.7386 18.4107C13.6312 18.6497 13.3497 19.2497 13.3497 19.2497L13.4275 18.7447C13.4275 18.7447 13.3458 18.5184 13.4645 18.2806Z" fill="url(#paint11_linear_1_2463)"/>
<path d="M13.4568 18.1727C15.4538 13.8302 19.7308 10.1731 24.696 10.8697C24.7791 10.8803 24.8667 10.8578 24.948 10.8705C24.8667 10.8579 24.7789 10.8808 24.6958 10.8704C19.7147 10.1852 15.4424 13.9988 13.6552 18.3532C13.5477 18.5922 13.2663 19.1922 13.2663 19.1922L13.2662 18.7394C13.2662 18.7394 13.3381 18.4105 13.4568 18.1727Z" fill="url(#paint12_linear_1_2463)"/>
</g>
</g>
<defs>
<filter id="filter0_n_1_2463" x="0.133789" y="1.15787" width="25.6738" height="25.1599" filterUnits="userSpaceOnUse" color-interpolation-filters="sRGB">
<feFlood flood-opacity="0" result="BackgroundImageFix"/>
<feBlend mode="normal" in="SourceGraphic" in2="BackgroundImageFix" result="shape"/>
<feTurbulence type="fractalNoise" baseFrequency="29.732398986816406 29.732398986816406" stitchTiles="stitch" numOctaves="3" result="noise" seed="6270" />
<feColorMatrix in="noise" type="luminanceToAlpha" result="alphaNoise" />
<feComponentTransfer in="alphaNoise" result="coloredNoise1">
<feFuncA type="discrete" tableValues="0 0 0 0 1 1 1 1 1 1 1 1 1 1 1 1 1 1 1 1 1 1 1 1 1 1 1 1 1 1 1 1 1 1 1 1 1 1 1 1 1 1 1 1 1 1 1 0 0 0 0 0 0 0 0 0 0 0 0 0 0 0 0 0 0 0 0 0 0 0 0 0 0 0 0 0 0 0 0 0 0 0 0 0 0 0 0 0 0 0 0 0 0 0 0 0 0 0 0 0 "/>
</feComponentTransfer>
<feComposite operator="in" in2="shape" in="coloredNoise1" result="noise1Clipped" />
<feFlood flood-color="rgba(0, 0, 0, 0.25)" result="color1Flood" />
<feComposite operator="in" in2="noise1Clipped" in="color1Flood" result="color1" />
<feMerge result="effect1_noise_1_2463">
<feMergeNode in="shape" />
<feMergeNode in="color1" />
</feMerge>
</filter>
<filter id="filter1_n_1_2463" x="0.133789" y="1.23322" width="12.6299" height="24.9385" filterUnits="userSpaceOnUse" color-interpolation-filters="sRGB">
<feFlood flood-opacity="0" result="BackgroundImageFix"/>
<feBlend mode="normal" in="SourceGraphic" in2="BackgroundImageFix" result="shape"/>
<feTurbulence type="fractalNoise" baseFrequency="19.821598052978516 19.821598052978516" stitchTiles="stitch" numOctaves="3" result="noise" seed="5092" />
<feColorMatrix in="noise" type="luminanceToAlpha" result="alphaNoise" />
<feComponentTransfer in="alphaNoise" result="coloredNoise1">
<feFuncA type="discrete" tableValues="1 1 1 1 1 1 1 1 1 1 1 1 1 1 1 1 1 1 1 1 1 1 1 1 1 1 1 1 1 1 1 1 1 1 1 1 1 1 1 1 1 1 1 1 1 1 1 1 1 1 1 0 0 0 0 0 0 0 0 0 0 0 0 0 0 0 0 0 0 0 0 0 0 0 0 0 0 0 0 0 0 0 0 0 0 0 0 0 0 0 0 0 0 0 0 0 0 0 0 0 "/>
</feComponentTransfer>
<feComposite operator="in" in2="shape" in="coloredNoise1" result="noise1Clipped" />
<feFlood flood-color="rgba(131, 123, 123, 0.25)" result="color1Flood" />
<feComposite operator="in" in2="noise1Clipped" in="color1Flood" result="color1" />
<feMerge result="effect1_noise_1_2463">
<feMergeNode in="shape" />
<feMergeNode in="color1" />
</feMerge>
</filter>
<filter id="filter2_n_1_2463" x="13.1436" y="1.15787" width="12.6641" height="25.0467" filterUnits="userSpaceOnUse" color-interpolation-filters="sRGB">
<feFlood flood-opacity="0" result="BackgroundImageFix"/>
<feBlend mode="normal" in="SourceGraphic" in2="BackgroundImageFix" result="shape"/>
<feTurbulence type="fractalNoise" baseFrequency="19.821598052978516 19.821598052978516" stitchTiles="stitch" numOctaves="3" result="noise" seed="5092" />
<feColorMatrix in="noise" type="luminanceToAlpha" result="alphaNoise" />
<feComponentTransfer in="alphaNoise" result="coloredNoise1">
<feFuncA type="discrete" tableValues="1 1 1 1 1 1 1 1 1 1 1 1 1 1 1 1 1 1 1 1 1 1 1 1 1 1 1 1 1 1 1 1 1 1 1 1 1 1 1 1 1 1 1 1 1 1 1 1 1 1 1 0 0 0 0 0 0 0 0 0 0 0 0 0 0 0 0 0 0 0 0 0 0 0 0 0 0 0 0 0 0 0 0 0 0 0 0 0 0 0 0 0 0 0 0 0 0 0 0 0 "/>
</feComponentTransfer>
<feComposite operator="in" in2="shape" in="coloredNoise1" result="noise1Clipped" />
<feFlood flood-color="rgba(131, 123, 123, 0.25)" result="color1Flood" />
<feComposite operator="in" in2="noise1Clipped" in="color1Flood" result="color1" />
<feMerge result="effect1_noise_1_2463">
<feMergeNode in="shape" />
<feMergeNode in="color1" />
</feMerge>
</filter>
<linearGradient id="paint0_linear_1_2463" x1="0.599417" y1="0.544097" x2="13.296" y2="27.1985" gradientUnits="userSpaceOnUse">
<stop stop-color="#F0F0F0"/>
<stop offset="1" stop-color="#686868"/>
</linearGradient>
<linearGradient id="paint1_linear_1_2463" x1="-1.53146" y1="2.8667" x2="12.5236" y2="23.8389" gradientUnits="userSpaceOnUse">
<stop stop-color="#F2F2F2"/>
<stop offset="0.226398" stop-color="#D4D4D4"/>
<stop offset="0.730106" stop-color="#404040"/>
<stop offset="1" stop-color="#343434"/>
</linearGradient>
<linearGradient id="paint2_linear_1_2463" x1="2.78821" y1="10.7174" x2="13.6031" y2="24.5596" gradientUnits="userSpaceOnUse">
<stop stop-color="#D0CFCF"/>
<stop offset="0.270601" stop-color="#D6D6D6"/>
<stop offset="1" stop-color="#888888"/>
</linearGradient>
<radialGradient id="paint3_radial_1_2463" cx="0" cy="0" r="1" gradientUnits="userSpaceOnUse" gradientTransform="translate(2.42002 11.6108) rotate(84.8056) scale(13.0022 9.70146)">
<stop stop-color="#DBDBDB"/>
<stop offset="1" stop-color="#CBCBCA" stop-opacity="0"/>
</radialGradient>
<linearGradient id="paint4_linear_1_2463" x1="6.21665" y1="11.6464" x2="6.93408" y2="19.6598" gradientUnits="userSpaceOnUse">
<stop stop-color="#C8C8C8"/>
<stop offset="1" stop-color="#828282"/>
</linearGradient>
<radialGradient id="paint5_radial_1_2463" cx="0" cy="0" r="1" gradientTransform="matrix(5.4655 12.6966 -10.7629 4.63295 1.07532 9.51039)" gradientUnits="userSpaceOnUse">
<stop stop-color="white"/>
<stop offset="1" stop-color="#A5A5A5" stop-opacity="0"/>
</radialGradient>
<radialGradient id="paint6_radial_1_2463" cx="0" cy="0" r="1" gradientUnits="userSpaceOnUse" gradientTransform="translate(25.7326 7.49548) rotate(-152.21) scale(7.03341 31.3168)">
<stop stop-color="#3A3A3A"/>
<stop offset="1" stop-color="white"/>
</radialGradient>
<radialGradient id="paint7_radial_1_2463" cx="0" cy="0" r="1" gradientUnits="userSpaceOnUse" gradientTransform="translate(16.9879 5.30931) rotate(101.541) scale(16.3913 18.5545)">
<stop stop-color="white"/>
<stop offset="1" stop-color="#292929" stop-opacity="0.75"/>
</radialGradient>
<linearGradient id="paint8_linear_1_2463" x1="27.4836" y1="2.67898" x2="10.3441" y2="21.8506" gradientUnits="userSpaceOnUse">
<stop stop-color="#696969"/>
<stop offset="0.269894" stop-color="#868685"/>
<stop offset="0.773602" stop-color="#BBB9B9"/>
</linearGradient>
<linearGradient id="paint9_linear_1_2463" x1="23.1639" y1="10.5297" x2="13.2878" y2="24.4566" gradientUnits="userSpaceOnUse">
<stop stop-color="#8A8888"/>
<stop offset="0.270601" stop-color="#666565"/>
<stop offset="1" stop-color="#424141"/>
</linearGradient>
<radialGradient id="paint10_radial_1_2463" cx="0" cy="0" r="1" gradientUnits="userSpaceOnUse" gradientTransform="translate(23.5472 11.5295) rotate(95.3041) scale(12.8976 9.62342)">
<stop stop-color="#898887"/>
<stop offset="1" stop-color="#646060" stop-opacity="0"/>
</radialGradient>
<linearGradient id="paint11_linear_1_2463" x1="13.2877" y1="19.0754" x2="19.3656" y2="10.6142" gradientUnits="userSpaceOnUse">
<stop stop-color="#3B3B3B"/>
<stop offset="1" stop-color="#484848" stop-opacity="0"/>
</linearGradient>
<linearGradient id="paint12_linear_1_2463" x1="13.3711" y1="18.5721" x2="19.2804" y2="10.6141" gradientUnits="userSpaceOnUse">
<stop stop-color="#DEDEDE"/>
<stop offset="1" stop-color="#999999"/>
</linearGradient>
</defs>
</svg>
